<?xml version="1.0" encoding="UTF-8" standalone="no"?>
<!-- Created with Inkscape (http://www.inkscape.org/) -->

<svg
   width="54.099979mm"
   height="44.84898mm"
   viewBox="0 0 54.099979 44.84898"
   version="1.1"
   id="svg1"
   xml:space="preserve"
   inkscape:version="1.3.2 (091e20ef0f, 2023-11-25)"
   sodipodi:docname="FBHeadTarget.svg"
   xmlns:inkscape="http://www.inkscape.org/namespaces/inkscape"
   xmlns:sodipodi="http://sodipodi.sourceforge.net/DTD/sodipodi-0.dtd"
   xmlns="http://www.w3.org/2000/svg"
   xmlns:svg="http://www.w3.org/2000/svg"><sodipodi:namedview
     id="namedview1"
     pagecolor="#505050"
     bordercolor="#eeeeee"
     borderopacity="1"
     inkscape:showpageshadow="0"
     inkscape:pageopacity="0"
     inkscape:pagecheckerboard="0"
     inkscape:deskcolor="#d1d1d1"
     inkscape:document-units="mm"
     inkscape:zoom="2.0283687"
     inkscape:cx="96.382872"
     inkscape:cy="78.634619"
     inkscape:window-width="1920"
     inkscape:window-height="1011"
     inkscape:window-x="0"
     inkscape:window-y="0"
     inkscape:window-maximized="1"
     inkscape:current-layer="layer1" /><defs
     id="defs1"><marker
       id="DistanceX"
       orient="auto"
       refX="0"
       refY="0"
       style="overflow:visible"><path
         d="M 3,-3 -3,3 M 0,-5 V 5"
         style="stroke:#000000;stroke-width:0.5"
         id="path1" /></marker><pattern
       id="Hatch"
       patternUnits="userSpaceOnUse"
       width="8"
       height="8"
       x="0"
       y="0"><path
         d="M8 4 l-4,4"
         stroke="#000000"
         stroke-width="0.25"
         linecap="square"
         id="path2" /><path
         d="M6 2 l-4,4"
         stroke="#000000"
         stroke-width="0.25"
         linecap="square"
         id="path3" /><path
         d="M4 0 l-4,4"
         stroke="#000000"
         stroke-width="0.25"
         linecap="square"
         id="path4" /></pattern><symbol
       id="*MODEL_SPACE" /><symbol
       id="*PAPER_SPACE" /><marker
       id="DistanceX-8"
       orient="auto"
       refX="0"
       refY="0"
       style="overflow:visible"><path
         d="M 3,-3 -3,3 M 0,-5 V 5"
         style="stroke:#000000;stroke-width:0.5"
         id="path1-9" /></marker><pattern
       id="Hatch-7"
       patternUnits="userSpaceOnUse"
       width="8"
       height="8"
       x="0"
       y="0"><path
         d="M8 4 l-4,4"
         stroke="#000000"
         stroke-width="0.25"
         linecap="square"
         id="path2-7" /><path
         d="M6 2 l-4,4"
         stroke="#000000"
         stroke-width="0.25"
         linecap="square"
         id="path3-6" /><path
         d="M4 0 l-4,4"
         stroke="#000000"
         stroke-width="0.25"
         linecap="square"
         id="path4-4" /></pattern><symbol
       id="*MODEL_SPACE-3" /><symbol
       id="*PAPER_SPACE-0" /></defs><g
     inkscape:label="Layer 1"
     inkscape:groupmode="layer"
     id="layer1"
     transform="translate(-77.914612,-126.07551)"><path
       style="fill:none;stroke:#ff0000;stroke-width:0.1;stroke-dasharray:none;stroke-opacity:1"
       d="m 100.46462,126.12551 v 37.24804"
       id="path34" /><path
       style="fill:none;stroke:#ff0000;stroke-width:0.1;stroke-dasharray:none;stroke-opacity:1"
       d="M 77.964612,142.74928 H 131.96459"
       id="path37" /><path
       style="fill:none;stroke:#000000;stroke-width:0.1;stroke-dasharray:none"
       d="M 131.96459,170.87449 V 126.12551 H 77.964612 v 37.24804 h 46.500018 v 7.50094 z"
       id="path39"
       sodipodi:nodetypes="ccccccc" /><path
       d="m 103.96462,142.74928 a 3.5,3.5 0 0 0 -7,0 3.5,3.5 0 0 0 7,0 z"
       style="fill:none;stroke:#ff0000;stroke-width:0.1;stroke-dasharray:none;stroke-opacity:1"
       id="path34-5" /><path
       d="m 105.46462,142.74928 a 5,5 0 0 0 -10,0 5,5 0 0 0 10,0 z"
       style="fill:none;stroke:#ff0000;stroke-width:0.1;stroke-dasharray:none;stroke-opacity:1"
       id="path35-1" /><path
       d="m 112.96462,142.74928 a 12.5,12.5 0 0 0 -25,0 12.5,12.5 0 0 0 25,0 z"
       style="fill:none;stroke:#ff0000;stroke-width:0.1;stroke-dasharray:none;stroke-opacity:1"
       id="path36-1" /><path
       d="m 113.96462,142.74928 a 13.5,13.5 0 0 0 -27,0 13.5,13.5 0 0 0 27,0 z"
       style="fill:none;stroke:#ff0000;stroke-width:0.1;stroke-dasharray:none;stroke-opacity:1"
       id="path37-0" /><path
       d="m 102.96462,142.74928 a 2.5,2.5 0 0 0 -5,0 2.5,2.5 0 0 0 5,0 z"
       style="fill:none;stroke:#ff0000;stroke-width:0.1;stroke-dasharray:none;stroke-opacity:1"
       id="path40-0" /></g></svg>
