<?xml version="1.0" encoding="UTF-8" standalone="no"?>
<!-- Created with Inkscape (http://www.inkscape.org/) -->

<svg
   width="35.099991mm"
   height="35.099522mm"
   viewBox="0 0 35.099991 35.099522"
   version="1.1"
   id="svg1"
   xml:space="preserve"
   inkscape:version="1.3.2 (091e20ef0f, 2023-11-25)"
   sodipodi:docname="LooseTarget.svg"
   xmlns:inkscape="http://www.inkscape.org/namespaces/inkscape"
   xmlns:sodipodi="http://sodipodi.sourceforge.net/DTD/sodipodi-0.dtd"
   xmlns="http://www.w3.org/2000/svg"
   xmlns:svg="http://www.w3.org/2000/svg"><sodipodi:namedview
     id="namedview1"
     pagecolor="#505050"
     bordercolor="#eeeeee"
     borderopacity="1"
     inkscape:showpageshadow="0"
     inkscape:pageopacity="0"
     inkscape:pagecheckerboard="0"
     inkscape:deskcolor="#d1d1d1"
     inkscape:document-units="mm"
     inkscape:zoom="4.0567375"
     inkscape:cx="38.824302"
     inkscape:cy="71.855771"
     inkscape:window-width="1920"
     inkscape:window-height="1011"
     inkscape:window-x="0"
     inkscape:window-y="0"
     inkscape:window-maximized="1"
     inkscape:current-layer="layer1" /><defs
     id="defs1"><marker
       id="DistanceX"
       orient="auto"
       refX="0"
       refY="0"
       style="overflow:visible"><path
         d="M 3,-3 -3,3 M 0,-5 V 5"
         style="stroke:#000000;stroke-width:0.5"
         id="path1" /></marker><pattern
       id="Hatch"
       patternUnits="userSpaceOnUse"
       width="8"
       height="8"
       x="0"
       y="0"><path
         d="M8 4 l-4,4"
         stroke="#000000"
         stroke-width="0.25"
         linecap="square"
         id="path2" /><path
         d="M6 2 l-4,4"
         stroke="#000000"
         stroke-width="0.25"
         linecap="square"
         id="path3" /><path
         d="M4 0 l-4,4"
         stroke="#000000"
         stroke-width="0.25"
         linecap="square"
         id="path4" /></pattern><symbol
       id="*MODEL_SPACE" /><symbol
       id="*PAPER_SPACE" /><marker
       id="DistanceX-7"
       orient="auto"
       refX="0"
       refY="0"
       style="overflow:visible"><path
         d="M 3,-3 -3,3 M 0,-5 V 5"
         style="stroke:#000000;stroke-width:0.5"
         id="path1-1" /></marker><pattern
       id="Hatch-7"
       patternUnits="userSpaceOnUse"
       width="8"
       height="8"
       x="0"
       y="0"><path
         d="M8 4 l-4,4"
         stroke="#000000"
         stroke-width="0.25"
         linecap="square"
         id="path2-2" /><path
         d="M6 2 l-4,4"
         stroke="#000000"
         stroke-width="0.25"
         linecap="square"
         id="path3-7" /><path
         d="M4 0 l-4,4"
         stroke="#000000"
         stroke-width="0.25"
         linecap="square"
         id="path4-2" /></pattern><symbol
       id="*MODEL_SPACE-2" /><symbol
       id="*PAPER_SPACE-6" /><marker
       id="DistanceX-8"
       orient="auto"
       refX="0"
       refY="0"
       style="overflow:visible"><path
         d="M 3,-3 -3,3 M 0,-5 V 5"
         style="stroke:#000000;stroke-width:0.5"
         id="path1-5" /></marker><pattern
       id="Hatch-6"
       patternUnits="userSpaceOnUse"
       width="8"
       height="8"
       x="0"
       y="0"><path
         d="M8 4 l-4,4"
         stroke="#000000"
         stroke-width="0.25"
         linecap="square"
         id="path2-1" /><path
         d="M6 2 l-4,4"
         stroke="#000000"
         stroke-width="0.25"
         linecap="square"
         id="path3-1" /><path
         d="M4 0 l-4,4"
         stroke="#000000"
         stroke-width="0.25"
         linecap="square"
         id="path4-5" /></pattern><symbol
       id="*MODEL_SPACE-9" /><symbol
       id="*PAPER_SPACE-8" /></defs><g
     inkscape:label="Layer 1"
     inkscape:groupmode="layer"
     id="layer1"
     transform="translate(-74.541659,-135.58853)"><path
       style="fill:none;stroke:#ff0000;stroke-width:0.1;stroke-dasharray:none;stroke-opacity:1"
       d="M 109.59165,153.13833 H 74.591664"
       id="path34-3" /><path
       style="fill:none;stroke:#ff0000;stroke-width:0.1;stroke-dasharray:none;stroke-opacity:1"
       d="m 92.091655,135.63879 v 34.99908"
       id="path35-9" /><path
       style="fill:none;stroke:#000000;stroke-width:0.1;stroke-dasharray:none"
       d="m 74.591659,165.63775 c 2e-6,2.76192 2.238576,5.00049 4.999996,5.0003 h 25.000005 c 2.76141,1.9e-4 4.99998,-2.23838 4.99999,-5.0003 v -24.99892 c -1e-5,-2.762 -2.23858,-5.00057 -4.99999,-5.0003 H 79.591655 c -2.76142,-2.7e-4 -4.999994,2.2383 -4.999996,5.0003 z"
       id="path41"
       sodipodi:nodetypes="ccccccccc" /><path
       d="m 95.591655,153.13825 a 3.5,3.5 0 0 0 -7,0 3.5,3.5 0 0 0 7,0 z"
       style="fill:none;stroke:#ff0000;stroke-width:0.1;stroke-dasharray:none;stroke-opacity:1"
       id="path34-8" /><path
       d="m 97.091655,153.13825 a 5,5 0 0 0 -10,0 5,5 0 0 0 10,0 z"
       style="fill:none;stroke:#ff0000;stroke-width:0.1;stroke-dasharray:none;stroke-opacity:1"
       id="path35-3" /><path
       d="m 104.59165,153.13825 a 12.5,12.5 0 0 0 -24.999995,0 12.5,12.5 0 0 0 24.999995,0 z"
       style="fill:none;stroke:#ff0000;stroke-width:0.1;stroke-dasharray:none;stroke-opacity:1"
       id="path36-1" /><path
       d="m 105.59165,153.13825 a 13.5,13.5 0 0 0 -26.999995,0 13.5,13.5 0 0 0 26.999995,0 z"
       style="fill:none;stroke:#ff0000;stroke-width:0.1;stroke-dasharray:none;stroke-opacity:1"
       id="path37-89" /><path
       d="m 94.591655,153.13825 a 2.5,2.5 0 0 0 -5,0 2.5,2.5 0 0 0 5,0 z"
       style="fill:none;stroke:#ff0000;stroke-width:0.1;stroke-dasharray:none;stroke-opacity:1"
       id="path40-3" /></g></svg>
